# xmcd CD database file
#
# Track frame offsets:
#	150
#	17852
#	35557
#	56652
#	73120
#	95892
#	109850
#	129980
#	144722
#	172400
#	188357
#
# Disc length: 2927 seconds
#
# Revision: 0
# Processed by: cddbd v1.5.2PL0 Copyright (c) Steve Scherf et al.
# Submitted via: CDex 1.70beta2
#
DISCID=a50b6d0b
DTITLE=Big Bang - Easy
DYEAR=1900
DGENRE=Blues
TTITLE0=I Really Do
TTITLE1=Still Don't Have You
TTITLE2=Don't Touch Me
TTITLE3=Tragady
TTITLE4=You Don't Know What Love Is
TTITLE5=Juke Joint Jenny
TTITLE6=Don't Want To Say Goodbye
TTITLE7=Changes
TTITLE8=I Could Cry
TTITLE9=Garden Of Love
TTITLE10=Air Stream Chilli
EXTD=
EXTT0=
EXTT1=
EXTT2=
EXTT3=
EXTT4=
EXTT5=
EXTT6=
EXTT7=
EXTT8=
EXTT9=
EXTT10=
PLAYORDER=
